<mxfile host="app.diagrams.net" agent="Mozilla/5.0 (Windows NT 10.0; Win64; x64) AppleWebKit/537.36 (KHTML, like Gecko) Chrome/122.0.6261.95 Safari/537.36" version="24.8.3">
  <diagram name="Page-1" id="74e2e168-ea6b-b213-b513-2b3c1d86103e">
    <mxGraphModel dx="1155" dy="613" grid="1" gridSize="10" guides="1" tooltips="1" connect="1" arrows="1" fold="1" page="1" pageScale="1" pageWidth="1100" pageHeight="850" background="none" math="0" shadow="0">
      <root>
        <mxCell id="0" />
        <mxCell id="1" parent="0" />
        <mxCell id="77e6c97f196da883-1" value="生产技术文件发布流程" style="swimlane;html=1;childLayout=stackLayout;startSize=20;rounded=0;shadow=0;labelBackgroundColor=none;strokeWidth=1;fontFamily=Verdana;fontSize=15;align=center;" parent="1" vertex="1">
          <mxGeometry x="70" y="50" width="960" height="740" as="geometry" />
        </mxCell>
        <mxCell id="77e6c97f196da883-3" value="测试工程师" style="swimlane;html=1;startSize=20;" parent="77e6c97f196da883-1" vertex="1">
          <mxGeometry y="20" width="320" height="720" as="geometry" />
        </mxCell>
        <mxCell id="1AljjqWNzGs9JfspiaiC-6" value="修改系统BOM" style="rounded=1;whiteSpace=wrap;html=1;shadow=0;labelBackgroundColor=none;strokeWidth=1;fontFamily=Verdana;fontSize=8;align=center;" vertex="1" parent="77e6c97f196da883-3">
          <mxGeometry x="100" y="480" width="100" height="40" as="geometry" />
        </mxCell>
        <mxCell id="1AljjqWNzGs9JfspiaiC-7" value="发布生产技术文件" style="rounded=1;whiteSpace=wrap;html=1;shadow=0;labelBackgroundColor=none;strokeWidth=1;fontFamily=Verdana;fontSize=8;align=center;" vertex="1" parent="77e6c97f196da883-3">
          <mxGeometry x="100" y="600" width="100" height="40" as="geometry" />
        </mxCell>
        <mxCell id="1AljjqWNzGs9JfspiaiC-30" value="N" style="rounded=0;whiteSpace=wrap;html=1;strokeColor=none;" vertex="1" parent="77e6c97f196da883-3">
          <mxGeometry x="200" y="280" width="20" height="20" as="geometry" />
        </mxCell>
        <mxCell id="1AljjqWNzGs9JfspiaiC-31" value="Y" style="rounded=0;whiteSpace=wrap;html=1;strokeColor=none;" vertex="1" parent="77e6c97f196da883-3">
          <mxGeometry x="160" y="320" width="20" height="20" as="geometry" />
        </mxCell>
        <mxCell id="77e6c97f196da883-4" value="硬件工程师" style="swimlane;html=1;startSize=20;" parent="77e6c97f196da883-1" vertex="1">
          <mxGeometry x="320" y="20" width="330" height="720" as="geometry" />
        </mxCell>
        <mxCell id="77e6c97f196da883-11" value="整理生产技术文件" style="rounded=1;whiteSpace=wrap;html=1;shadow=0;labelBackgroundColor=none;strokeWidth=1;fontFamily=Verdana;fontSize=8;align=center;" parent="77e6c97f196da883-4" vertex="1">
          <mxGeometry x="120" y="50" width="100" height="40" as="geometry" />
        </mxCell>
        <mxCell id="1AljjqWNzGs9JfspiaiC-15" style="edgeStyle=orthogonalEdgeStyle;rounded=0;orthogonalLoop=1;jettySize=auto;html=1;exitX=0.5;exitY=1;exitDx=0;exitDy=0;entryX=0.5;entryY=0;entryDx=0;entryDy=0;" edge="1" parent="77e6c97f196da883-4" source="77e6c97f196da883-17" target="1AljjqWNzGs9JfspiaiC-2">
          <mxGeometry relative="1" as="geometry" />
        </mxCell>
        <mxCell id="77e6c97f196da883-17" value="形式审核" style="rounded=1;whiteSpace=wrap;html=1;shadow=0;labelBackgroundColor=none;strokeWidth=1;fontFamily=Verdana;fontSize=8;align=center;" parent="77e6c97f196da883-4" vertex="1">
          <mxGeometry x="-220" y="210" width="100" height="40" as="geometry" />
        </mxCell>
        <mxCell id="1AljjqWNzGs9JfspiaiC-16" style="edgeStyle=orthogonalEdgeStyle;rounded=0;orthogonalLoop=1;jettySize=auto;html=1;exitX=1;exitY=0.5;exitDx=0;exitDy=0;entryX=0;entryY=0.5;entryDx=0;entryDy=0;" edge="1" parent="77e6c97f196da883-4" source="1AljjqWNzGs9JfspiaiC-2" target="1AljjqWNzGs9JfspiaiC-3">
          <mxGeometry relative="1" as="geometry" />
        </mxCell>
        <mxCell id="1AljjqWNzGs9JfspiaiC-18" style="edgeStyle=orthogonalEdgeStyle;rounded=0;orthogonalLoop=1;jettySize=auto;html=1;exitX=0.5;exitY=1;exitDx=0;exitDy=0;entryX=0.5;entryY=0;entryDx=0;entryDy=0;" edge="1" parent="77e6c97f196da883-4" source="1AljjqWNzGs9JfspiaiC-2" target="77e6c97f196da883-15">
          <mxGeometry relative="1" as="geometry" />
        </mxCell>
        <mxCell id="1AljjqWNzGs9JfspiaiC-2" value="通过？" style="rhombus;whiteSpace=wrap;html=1;rounded=0;shadow=0;labelBackgroundColor=none;strokeWidth=1;fontFamily=Verdana;fontSize=8;align=center;" vertex="1" parent="77e6c97f196da883-4">
          <mxGeometry x="-210" y="280" width="80" height="40" as="geometry" />
        </mxCell>
        <mxCell id="1AljjqWNzGs9JfspiaiC-19" style="edgeStyle=orthogonalEdgeStyle;rounded=0;orthogonalLoop=1;jettySize=auto;html=1;exitX=0.5;exitY=1;exitDx=0;exitDy=0;entryX=0.5;entryY=0;entryDx=0;entryDy=0;" edge="1" parent="77e6c97f196da883-4" source="77e6c97f196da883-15" target="77e6c97f196da883-14">
          <mxGeometry relative="1" as="geometry" />
        </mxCell>
        <mxCell id="77e6c97f196da883-15" value="申请新物料编码" style="rounded=1;whiteSpace=wrap;html=1;shadow=0;labelBackgroundColor=none;strokeWidth=1;fontFamily=Verdana;fontSize=8;align=center;" parent="77e6c97f196da883-4" vertex="1">
          <mxGeometry x="-220" y="345" width="100" height="40" as="geometry" />
        </mxCell>
        <mxCell id="1AljjqWNzGs9JfspiaiC-21" style="edgeStyle=orthogonalEdgeStyle;rounded=0;orthogonalLoop=1;jettySize=auto;html=1;exitX=1;exitY=0.5;exitDx=0;exitDy=0;entryX=0.5;entryY=0;entryDx=0;entryDy=0;" edge="1" parent="77e6c97f196da883-4" source="77e6c97f196da883-14" target="1AljjqWNzGs9JfspiaiC-4">
          <mxGeometry relative="1" as="geometry" />
        </mxCell>
        <mxCell id="77e6c97f196da883-14" value="录入系统BOM" style="rounded=1;whiteSpace=wrap;html=1;shadow=0;labelBackgroundColor=none;strokeWidth=1;fontFamily=Verdana;fontSize=8;align=center;" parent="77e6c97f196da883-4" vertex="1">
          <mxGeometry x="-220" y="410" width="100" height="40" as="geometry" />
        </mxCell>
        <mxCell id="1AljjqWNzGs9JfspiaiC-17" style="edgeStyle=orthogonalEdgeStyle;rounded=0;orthogonalLoop=1;jettySize=auto;html=1;exitX=0.5;exitY=0;exitDx=0;exitDy=0;entryX=1;entryY=0.5;entryDx=0;entryDy=0;" edge="1" parent="77e6c97f196da883-4" source="1AljjqWNzGs9JfspiaiC-3" target="77e6c97f196da883-17">
          <mxGeometry relative="1" as="geometry" />
        </mxCell>
        <mxCell id="1AljjqWNzGs9JfspiaiC-3" value="修改" style="rounded=1;whiteSpace=wrap;html=1;shadow=0;labelBackgroundColor=none;strokeWidth=1;fontFamily=Verdana;fontSize=8;align=center;" vertex="1" parent="77e6c97f196da883-4">
          <mxGeometry x="120" y="280" width="100" height="40" as="geometry" />
        </mxCell>
        <mxCell id="1AljjqWNzGs9JfspiaiC-22" style="edgeStyle=orthogonalEdgeStyle;rounded=0;orthogonalLoop=1;jettySize=auto;html=1;exitX=0.5;exitY=1;exitDx=0;exitDy=0;entryX=0.5;entryY=0;entryDx=0;entryDy=0;" edge="1" parent="77e6c97f196da883-4" source="1AljjqWNzGs9JfspiaiC-4" target="1AljjqWNzGs9JfspiaiC-5">
          <mxGeometry relative="1" as="geometry" />
        </mxCell>
        <mxCell id="1AljjqWNzGs9JfspiaiC-4" value="检查系统BOM" style="rounded=1;whiteSpace=wrap;html=1;shadow=0;labelBackgroundColor=none;strokeWidth=1;fontFamily=Verdana;fontSize=8;align=center;" vertex="1" parent="77e6c97f196da883-4">
          <mxGeometry x="120" y="480" width="100" height="40" as="geometry" />
        </mxCell>
        <mxCell id="1AljjqWNzGs9JfspiaiC-5" value="通过？" style="rhombus;whiteSpace=wrap;html=1;rounded=0;shadow=0;labelBackgroundColor=none;strokeWidth=1;fontFamily=Verdana;fontSize=8;align=center;" vertex="1" parent="77e6c97f196da883-4">
          <mxGeometry x="130" y="540" width="80" height="40" as="geometry" />
        </mxCell>
        <mxCell id="1AljjqWNzGs9JfspiaiC-32" value="Y" style="rounded=0;whiteSpace=wrap;html=1;strokeColor=none;" vertex="1" parent="77e6c97f196da883-4">
          <mxGeometry x="140" y="590" width="20" height="20" as="geometry" />
        </mxCell>
        <mxCell id="1AljjqWNzGs9JfspiaiC-33" value="N" style="rounded=0;whiteSpace=wrap;html=1;strokeColor=none;" vertex="1" parent="77e6c97f196da883-4">
          <mxGeometry x="100" y="540" width="20" height="20" as="geometry" />
        </mxCell>
        <mxCell id="77e6c97f196da883-5" value="硬件组" style="swimlane;html=1;startSize=20;" parent="77e6c97f196da883-1" vertex="1">
          <mxGeometry x="650" y="20" width="310" height="720" as="geometry" />
        </mxCell>
        <mxCell id="1AljjqWNzGs9JfspiaiC-12" style="edgeStyle=orthogonalEdgeStyle;rounded=0;orthogonalLoop=1;jettySize=auto;html=1;exitX=0.5;exitY=1;exitDx=0;exitDy=0;entryX=0.5;entryY=0;entryDx=0;entryDy=0;" edge="1" parent="77e6c97f196da883-5" source="77e6c97f196da883-12" target="77e6c97f196da883-13">
          <mxGeometry relative="1" as="geometry" />
        </mxCell>
        <mxCell id="77e6c97f196da883-12" value="文件审核" style="rounded=1;whiteSpace=wrap;html=1;shadow=0;labelBackgroundColor=none;strokeWidth=1;fontFamily=Verdana;fontSize=8;align=center;" parent="77e6c97f196da883-5" vertex="1">
          <mxGeometry x="110" y="50" width="100" height="40" as="geometry" />
        </mxCell>
        <mxCell id="77e6c97f196da883-13" value="通过？" style="rhombus;whiteSpace=wrap;html=1;rounded=0;shadow=0;labelBackgroundColor=none;strokeWidth=1;fontFamily=Verdana;fontSize=8;align=center;" parent="77e6c97f196da883-5" vertex="1">
          <mxGeometry x="120" y="110" width="80" height="40" as="geometry" />
        </mxCell>
        <mxCell id="1AljjqWNzGs9JfspiaiC-27" value="N" style="rounded=0;whiteSpace=wrap;html=1;strokeColor=none;" vertex="1" parent="77e6c97f196da883-5">
          <mxGeometry x="90" y="110" width="20" height="20" as="geometry" />
        </mxCell>
        <mxCell id="1AljjqWNzGs9JfspiaiC-28" value="Y" style="rounded=0;whiteSpace=wrap;html=1;strokeColor=none;" vertex="1" parent="77e6c97f196da883-5">
          <mxGeometry x="130" y="150" width="20" height="20" as="geometry" />
        </mxCell>
        <mxCell id="1AljjqWNzGs9JfspiaiC-9" style="edgeStyle=orthogonalEdgeStyle;rounded=0;orthogonalLoop=1;jettySize=auto;html=1;exitX=1;exitY=0.5;exitDx=0;exitDy=0;entryX=0;entryY=0.5;entryDx=0;entryDy=0;" edge="1" parent="77e6c97f196da883-1" source="77e6c97f196da883-11" target="77e6c97f196da883-12">
          <mxGeometry relative="1" as="geometry" />
        </mxCell>
        <mxCell id="1AljjqWNzGs9JfspiaiC-13" style="edgeStyle=orthogonalEdgeStyle;rounded=0;orthogonalLoop=1;jettySize=auto;html=1;exitX=0;exitY=0.5;exitDx=0;exitDy=0;entryX=0.5;entryY=1;entryDx=0;entryDy=0;" edge="1" parent="77e6c97f196da883-1" source="77e6c97f196da883-13" target="77e6c97f196da883-11">
          <mxGeometry relative="1" as="geometry" />
        </mxCell>
        <mxCell id="1AljjqWNzGs9JfspiaiC-14" style="edgeStyle=orthogonalEdgeStyle;rounded=0;orthogonalLoop=1;jettySize=auto;html=1;exitX=0.5;exitY=1;exitDx=0;exitDy=0;entryX=0.5;entryY=0;entryDx=0;entryDy=0;" edge="1" parent="77e6c97f196da883-1" source="77e6c97f196da883-13" target="77e6c97f196da883-17">
          <mxGeometry relative="1" as="geometry" />
        </mxCell>
        <mxCell id="1AljjqWNzGs9JfspiaiC-23" style="edgeStyle=orthogonalEdgeStyle;rounded=0;orthogonalLoop=1;jettySize=auto;html=1;exitX=0;exitY=0.5;exitDx=0;exitDy=0;entryX=0.5;entryY=1;entryDx=0;entryDy=0;" edge="1" parent="77e6c97f196da883-1" source="1AljjqWNzGs9JfspiaiC-5" target="1AljjqWNzGs9JfspiaiC-6">
          <mxGeometry relative="1" as="geometry" />
        </mxCell>
        <mxCell id="1AljjqWNzGs9JfspiaiC-24" style="edgeStyle=orthogonalEdgeStyle;rounded=0;orthogonalLoop=1;jettySize=auto;html=1;exitX=1;exitY=0.5;exitDx=0;exitDy=0;entryX=0;entryY=0.5;entryDx=0;entryDy=0;" edge="1" parent="77e6c97f196da883-1" source="1AljjqWNzGs9JfspiaiC-6" target="1AljjqWNzGs9JfspiaiC-4">
          <mxGeometry relative="1" as="geometry" />
        </mxCell>
        <mxCell id="1AljjqWNzGs9JfspiaiC-25" style="edgeStyle=orthogonalEdgeStyle;rounded=0;orthogonalLoop=1;jettySize=auto;html=1;exitX=0.5;exitY=1;exitDx=0;exitDy=0;entryX=1;entryY=0.5;entryDx=0;entryDy=0;" edge="1" parent="77e6c97f196da883-1" source="1AljjqWNzGs9JfspiaiC-5" target="1AljjqWNzGs9JfspiaiC-7">
          <mxGeometry relative="1" as="geometry" />
        </mxCell>
        <mxCell id="1AljjqWNzGs9JfspiaiC-34" value="版本V1.0&amp;nbsp; 制定人：韩尽晖&amp;nbsp; 发布日期：2025.05.21" style="rounded=0;whiteSpace=wrap;html=1;fontStyle=1;strokeColor=none;" vertex="1" parent="1">
          <mxGeometry x="345" y="800" width="410" height="20" as="geometry" />
        </mxCell>
      </root>
    </mxGraphModel>
  </diagram>
</mxfile>
